<svg fill="none" xmlns="http://www.w3.org/2000/svg" viewBox="0 0 78 36"><path fill-rule="evenodd" clip-rule="evenodd" d="M35.745 17.246a17.699 17.699 0 00-.255-2.109l-4.937 2.469a1 1 0 10.894 1.788l4.298-2.148zm-.01 2.24c-.539 7.836-6.34 14.596-14.423 16.021-9.518 1.678-18.595-4.677-20.273-14.195C-.64 11.794 5.716 2.717 15.234 1.039c8.803-1.552 17.228 3.767 19.772 12.104l-5.347 2.674a3 3 0 002.683 5.366l3.393-1.696zm7.053-1.98c.034-.752.117-1.51.25-2.272C44.719 5.716 53.795-.639 63.313 1.04c9.518 1.678 15.873 10.755 14.195 20.273-1.678 9.518-10.755 15.873-20.273 14.195-6.591-1.162-11.666-5.872-13.606-11.82l5.575-2.439a3 3 0 00-2.405-5.497l-4.01 1.755zm.037 2.167l4.774-2.09a1 1 0 01.802 1.833l-5.288 2.314a17.368 17.368 0 01-.288-2.057zm-15.37 5.295a1.5 1.5 0 00-2.604-1.491c-.172.3-.597.693-1.425 1.1-.8.394-1.822.726-2.96.993-2.272.533-4.79.76-6.401.8a1.5 1.5 0 10.077 3c1.758-.046 4.488-.288 7.01-.88 1.26-.295 2.52-.69 3.6-1.22 1.05-.518 2.098-1.247 2.702-2.302zM7.616 14.259a3.5 3.5 0 106.523 0H7.616zm13.379.107a3.49 3.49 0 01-.211-1.278l6.129-2.231a3.5 3.5 0 11-5.918 3.509zm31.042 10.727a1.5 1.5 0 101.936 2.291c.265-.223.799-.448 1.716-.547.886-.097 1.96-.058 3.12.08 2.319.276 4.762.925 6.29 1.437a1.5 1.5 0 00.954-2.844c-1.668-.56-4.317-1.266-6.888-1.572-1.285-.153-2.605-.214-3.8-.084-1.165.127-2.399.454-3.328 1.239zm5.483-11.367a3.5 3.5 0 11-6.894-1.216 3.5 3.5 0 016.894 1.216zm6.893 1.216c.078-.443.236-.85.457-1.213l6.423 1.133a3.5 3.5 0 11-6.88.08z" fill="#fff"/><path fill-rule="evenodd" clip-rule="evenodd" d="M38.403 14.085a1 1 0 01.559.64l1.685 5.9 6.952-3.041a1 1 0 11.802 1.832l-8 3.5a1 1 0 01-1.362-.641l-1.67-5.842-5.922 2.962a1 1 0 11-.894-1.79l7-3.5a1 1 0 01.85-.02z" fill="#fff"/></svg>