<svg fill="none" xmlns="http://www.w3.org/2000/svg" viewBox="0 0 61 35"><path fill-rule="evenodd" clip-rule="evenodd" d="M47.354 27.314A19.41 19.41 0 0050 17.5c0-3.239-.79-6.293-2.187-8.981A9.99 9.99 0 0151 8c5.523 0 10 4.477 10 10s-4.477 10-10 10a9.976 9.976 0 01-3.646-.686zM13.187 8.52A19.416 19.416 0 0011 17.5c0 3.578.964 6.932 2.646 9.814A9.976 9.976 0 0110 28C4.477 28 0 23.523 0 18S4.477 8 10 8a9.99 9.99 0 013.187.519z" fill="#fff"/><path fill-rule="evenodd" clip-rule="evenodd" d="M30.5 35C40.165 35 48 27.165 48 17.5S40.165 0 30.5 0 13 7.835 13 17.5 20.835 35 30.5 35zm-6.182-14.726a3 3 0 10-3.386 4.953c2.983 2.04 6.221 3.148 9.568 3.148 3.347 0 6.585-1.109 9.568-3.148a3 3 0 00-3.386-4.953c-2.136 1.46-4.213 2.101-6.182 2.101-1.969 0-4.046-.641-6.182-2.101z" fill="#fff"/></svg>