<svg version="1" xmlns="http://www.w3.org/2000/svg" width="933.333" height="933.333" viewBox="0 0 700.000000 700.000000"><path d="M405.5 55.2c-6.9 1.8-31.5 7.5-35.1 8.2-1.1.2-3.7.9-5.9 1.5s-4.9 1.2-6 1.4c-1.1.2-3.1.7-4.5 1-1.4.4-20.9 5-43.5 10.2C288 82.8 258 89.8 244 93.1c-14 3.3-26.6 6.3-28 6.5-1.3.3-8.9 2.1-16.8 4-7.9 1.8-15.3 3.6-16.5 3.8-1.2.3-6.9 1.6-12.7 2.9-24.6 5.8-46.5 10.9-60.5 14.3-8.2 1.9-16.1 3.7-17.5 4-2.6.4-15 3.6-15 3.8 0 .3 10.2 43.5 12.1 51.6 1.2 4.7 2.2 9.2 2.4 10 .2.8 1.3 5.5 2.5 10.5 1.2 4.9 2.4 10.1 2.6 11.5.3 1.4 1.9 8.1 3.5 15s3.9 16.5 5 21.5c1.1 4.9 2.3 9.8 2.5 10.7.2 1 .6 2.6.8 3.6.2.9.9 3.5 1.4 5.7.6 2.2 1.3 5.1 1.5 6.5.3 1.4 1 4.3 1.5 6.5.6 2.2 1.3 5.1 1.6 6.5.2 1.4 1.6 7.4 3.1 13.5 1.5 6 2.9 12 3.1 13.1.2 1.2 1.8 8 3.5 15 1.7 7.1 3.2 13.6 3.4 14.4.2.8 1.1 4.6 2 8.5.9 3.8 1.9 8 2.1 9.3.2 1.2 1.4 6.2 2.5 11 1.2 4.8 2.2 9.4 2.4 10.2.2.8 1.5 6.2 2.9 12 4.1 16.9 15.8 67.3 16.3 70 .2 1.4.7 2.8 1.1 3.2.4.4 4.3-.2 8.7-1.3 4.4-1.2 8.9-2.3 10-2.5 1.1-.3 3.8-.9 6-1.3 5.6-1.2 37.6-8.7 52-12.1 28.8-6.8 46.9-11.1 60-14 15.2-3.4 18.9-4.6 18.1-5.8-.4-.8-1.7-15-2.1-23.2-.2-7.1 1.8-15.9 5.6-23.5 3-6.1 6.5-10.1 28.4-32.1s25.8-25.5 31.6-28.2c7.8-3.7 16.5-5.8 27.4-6.7 13.3-1 20.9-1.6 23.5-2 3.4-.5 20.3-1.7 26.5-2 6.8-.2 16.3 1.8 23.2 4.9 6.1 2.9 6.7 3 5.8 1.7-.3-.6-1.6-5.8-3-11.8-1.3-5.9-3.8-16.7-5.5-23.8-1.7-7.2-3.2-13.9-3.4-15-.3-1.1-1.6-6.7-3-12.5-5.7-23.9-10.8-45.6-11.2-47.3-.5-2.9-11.2-48.6-14.9-64.2-1.9-7.7-3.6-15.1-3.9-16.5-.3-1.4-.7-3.4-1-4.5-.2-1.1-3.9-16.9-8.1-35-4.3-18.2-8.1-34.7-8.6-36.8-1.1-4.3-1.8-4.4-13.4-1.5zm-48.9 82.9c2.1 2 3.6 6.7 4.9 14.9.6 4.4 1.9 11.9 4 23.5 2.7 14.2 2 18.6-3.3 20.6-2.5 1-11.6 2.9-20.2 4.3-1.9.3-4.6.8-6 1.1-1.4.3-7.9 1.4-14.5 2.6-6.6 1.1-13.3 2.3-15 2.6-1.6.3-3.7.6-4.5.8-.8.1-3.3.6-5.5 1-4.9.9-5.2 1-14.8 2.5-4.3.7-8 1.6-8.2 2-.4.6.2 4.6 2.9 20.5.2 1.1.7 3.6 1.1 5.5.3 1.9.7 4.3.9 5.2.1 1 .4 2 .7 2.2.2.3 9.4-1.1 20.4-3 21-3.6 21.1-3.7 34.2-5.8 7.6-1.2 8.5-1.2 11.2.5 1.6 1 3.4 2.6 3.9 3.6.8 1.5 3.9 17.2 6.7 33.8.3 1.6.7 4.1 1 5.5 1.2 5.7 1.5 9.7.9 12.2-.7 3.4-4.7 6.4-9.4 7.2-1.9.3-4.6.8-6 1-1.4.3-11.7 2.1-23 4.1-11.3 2-22.3 4-24.5 4.4-3.1.6-4 1.1-3.8 2.7.2 1.6 4.4 26.8 5.8 34.6.3 1.6.7 4 1 5.5.2 1.6.7 3.9 1 5.3.8 4.1 1.5 8.1 2.6 15.5 1.9 12.7-.3 14.8-19.4 18.1-7.3 1.3-19.7 3.5-27.7 4.9-24.7 4.3-25.5 3.9-28.4-12.6-.8-4.6-1.7-9.8-2-11.4-.3-1.7-1.2-7.1-2.1-12-.9-5-2.7-15.3-4.1-23-2.3-13.2-2.7-15.5-3.9-21.5-.2-1.4-.7-4.1-1-6-.3-1.9-1-6-1.5-9-1.6-8.6-1.7-9.3-5.5-31-2-11.3-3.8-21.6-4-23-1.3-7.2-4.5-24.9-4.9-27.5-1.6-9.1-5.7-32.4-6.1-34.5-1.4-7.1-1.7-9.3-2-12.8-.1-2 .4-4.9 1.3-6.4 2.4-4.1 2.2-4 32.2-9.4 4.7-.8 9.9-1.7 11.5-2 1.7-.2 8-1.3 14-2.4 6.1-1.1 12.1-2.1 13.5-2.4 1.4-.2 6.3-1.1 11-2 4.7-.8 10.2-1.8 12.4-2.2 2.1-.3 4.8-.8 6-1 1.1-.2 8.8-1.6 17-3s15.2-2.6 15.5-2.8c.3-.2 2.9-.7 5.6-1 2.8-.4 8.2-1.3 12-2 8.7-1.7 13.2-1.3 16.1 1.5z"/><path d="M569 342.1c-2.5.4-8.8 1-14 1.3-5.2.4-11.1.9-13 1.1-1.9.2-6.1.7-9.3 1-3.2.3-7 1-8.5 1.6-3.7 1.4-45 42.6-46.7 46.6-1.3 3-1.3 6.1 0 19.3.2 3 .7 8.9 1.1 13 .3 4.1.8 7.8 1 8.2.7 1.1-4.6 2.2-5.6 1.2-.5-.5-1.1-4.5-1.5-8.9-.3-4.4-.8-9.1-.9-10.5-.2-1.4-.7-6.8-1-12-.8-10.7-1.4-18.2-2.1-25.5-.3-2.8-.8-7.7-1.1-11-.7-7.4-2.9-11.5-7.4-13.7-3.5-1.8-4.2-1.8-22.5-.3-3.3.3-8.7.7-12 1-3.3.3-7.8.7-10 1-2.2.3-7.6.7-12 1.1-4.4.3-9.4 1.2-11.1 1.9-3.9 1.6-45.1 42.9-46.9 47-1.2 2.8-1.2 8.1 0 20 .2 2.7.7 7.9 1 11.5.3 3.6.8 8.3 1 10.5.2 2.2.7 7.1 1 11 .3 3.8.8 9 1.1 11.5.2 2.5.7 7.4.9 11 .3 3.6.7 9.2 1 12.5.8 8.4 1.3 14 2 21.5.3 3.6.7 9.2 1 12.5.3 3.3.7 8.5 1 11.5 1.1 13.3 1.6 19 3 33 .3 2.5.7 7.5 1 11.2 1.2 15.8 1.6 20.5 2 23.8.2 1.9.7 6.9 1 11 1.5 19.6 2.6 22.9 8.2 25.5 3.5 1.7 12 1.7 27.4 0 1.9-.2 7-.6 11.4-1 4.4-.3 9.8-.8 12-1 2.2-.3 6.4-.7 9.3-1 2.9-.3 6.4-1.1 7.8-1.8 1.4-.7 12.4-11.1 24.4-23.1 19.3-19.1 22-22.3 22.7-25.8.7-3.6.4-8.5-2.1-35.6l-.5-5.3 3.2.3c2.4.2 3.2.8 3.3 2.3.5 7.5 1.6 20.4 1.9 22.5.2 1.4.6 5.9 1 10 .3 4.1.8 10 1 13 .3 3 .7 8 1 11 1.1 13 1.8 16.9 3.6 19.9 2.4 3.9 6.5 5.8 12.2 5.5 6.7-.3 23-1.5 25.7-1.9 1.4-.2 6.3-.7 11-1 13-.9 22.2-2.4 24.5-3.9 1.1-.8 11.8-11 23.7-22.7 20.4-20.1 21.8-21.7 22.5-25.9.4-2.5.7-4.7.6-5-.1-.3-.4-4.1-.8-8.5s-.8-9.6-1-11.5c-.2-1.9-.6-7.1-1-11.5-.3-4.4-.7-9.6-1-11.5-.2-1.9-.7-6.9-1-11-.3-4.1-.8-9.3-1-11.5-.2-2.2-.7-7.8-1-12.5-.4-4.7-.8-9.6-1-11-.4-2.7-1.4-14.1-2-22.4-.2-2.8-.6-7.6-.9-10.6-.3-3-.8-8.7-1.1-12.5-.3-3.9-.8-8.8-1-11-.2-2.2-.7-6.9-1-10.5-1.3-17.6-3.3-40.4-4-46.5-.2-2.2-.7-7.2-1-11-.8-9-1.9-12.6-5.1-15.6-2.3-2.2-3.5-2.4-11.7-2.4-5.1 0-11.2.2-13.7.6zm23.1 4.5c2.6 2.3 3.7 6.6 4.4 16.4.3 4.7.7 10.1 1 12 .2 1.9.7 6.9 1 11 .4 4.1.8 9.1 1 11 .2 1.9.7 6.9 1 11 .3 4.1.7 9.5 1 12 .4 4.4 1.4 16.1 2 23 .5 5.9 1.6 18.3 2 23 .2 2.5.7 7.9 1.1 12 .3 4.1.7 9.1.9 11 .2 1.9.6 7.1 1 11.5.3 4.4.8 9.6 1 11.5.6 5.6 2 20.7 3 33.5.3 3.8.8 9.2 1 12 1.9 20.9 1.8 22.5-2.4 25.4-1.8 1.3-5.2 2.2-9.7 2.6-3.8.3-8.7.7-10.9 1-2.2.2-7.1.7-11 1-3.8.3-8.8.8-11 1-22 2.1-25.3 1.7-27.9-3.2-1.3-2.6-1.7-5.7-3.1-22-.3-2.9-.7-7.7-1-10.5-.2-2.9-.7-8.5-1-12.3-.3-3.9-.7-8.8-1-11-.2-2.2-.7-7.8-1.1-12.5-.4-4.7-.8-9.2-.9-10-.2-.8-.4-1.8-.4-2.2-.1-.4-.7-.6-1.3-.3-.7.2-4.9.6-9.3 1-4.4.3-10 .7-12.5 1-2.5.3-7 .7-10 1-11.9 1-20.6 1.8-21.7 1.8-.7 0-1.1.9-.8 2.1.4 2.1 1.3 12.1 2 22.3.2 2.8.6 7.5.9 10.5.3 2.9.8 8.4 1.1 12.3.3 3.8.7 8.8 1 11 2.9 26.4 1.7 28.7-16 30-4.9.3-10.6.8-12.5 1-1.9.2-6.9.6-11 1-4.1.3-10 .9-13 1.2-10.7 1.2-16 .7-18.5-1.7-3.1-2.9-3.5-5-5-25.5-.3-4.4-.8-9.6-1-11.5-.4-3.3-.7-6.7-2-22.3-.3-3.4-.7-8.2-1-10.7-.3-2.5-.7-8.3-1.1-13-.4-4.7-.8-9.9-.9-11.5-1.1-12.8-1.6-17.6-2-21.5-.2-2.5-.7-8.1-1.1-12.5-.3-4.4-.8-9.4-.9-11-.2-1.7-.6-7.1-1-12-.4-5-.8-9.7-1-10.5-.2-.9-.6-6.1-1-11.7s-.8-11.4-1-13c-.2-1.5-.6-7.3-1-12.8-.4-5.5-.8-10.2-1-10.5-.2-.3-.6-5.1-1-10.8-.6-8.6-.4-10.7 1-12.8 2.6-4 4-4.3 28-6.4 6.6-.6 13.8-1.2 16-1.5 2.2-.2 8.3-.7 13.5-1.1 8.7-.5 9.7-.4 12.2 1.6 3.2 2.5 4.4 6.6 5.3 17.5.3 4.4.7 9.6 1 11.5.2 1.9.7 6.9 1.1 11 .3 4.1.7 8.8.9 10.4.2 1.5.7 6.5 1.1 11 .3 4.4.8 9 .9 10.1.1 1.1.3 3.9.4 6.3 0 2.4.4 4.1.9 3.9.4-.3 4.8-.8 9.9-1.1 5-.4 10-.8 11-1 1-.2 6.3-.7 11.8-1.1 5.5-.4 11.1-.9 12.5-1 1.4-.2 4.2-.3 6.3-.4l3.8-.1-.6-8.3c-.4-4.5-.8-10-1-12.2-.2-2.2-.6-6.9-.9-10.5-1.9-19.9-2.5-26.5-3.2-36-.3-4.7-.7-8.7-.9-9-.2-.3.3-1.9 1-3.7 1.8-4.2 5.5-6 14-6.7 11.6-1 19.8-1.7 24-2.1 2.2-.2 7.8-.7 12.5-1.1 4.7-.3 8.6-.8 8.8-.9 1.1-.9 10.8.7 12.3 2.1z"/><path d="M558.5 377c-.6.9-.2 9.4 1 21.5.1 1.6.6 6.6.9 11 .4 4.4.9 9.8 1.1 12 .2 2.2.7 8 1.1 13 .3 4.9.8 9.8.9 10.7.2 1 .7 6.1 1 11.3l.7 9.5-4.4.1c-2.4 0-5 .2-5.9.4-.9.1-5.8.6-11 .9-5.2.3-10.3.8-11.4 1-1.1.2-6.3.7-11.5 1.1-5.2.4-10.8.8-12.5 1-1.6.2-7 .7-12 1-4.9.3-10.1.8-11.5 1-1.4.2-6.1.7-10.5 1-4.4.4-9.3.8-11 .9-1.6.2-6.6.6-11 1s-9.7.9-11.7 1.2c-2.1.3-3.8.1-3.9-.3-.3-2.4-.7-6.7-1.3-14.3-.4-4.7-.9-10.1-1.1-12-.3-1.9-.7-6.9-1-11-.3-4.1-.8-9.3-1-11.5-.4-3.8-.6-6.7-2-25-.9-12.8-1.4-14.7-3.3-14.3-.9.3-1.6.9-1.5 1.6.2.6.5 5 .8 9.7.4 4.7.8 9.3.9 10.2.4 1.7 1.1 9.4 2.1 22.5.3 3.2.7 8.4 1 11.5.6 6.3 1 10.6 2 22.8.3 4.4.8 9.3 1 11 .2 1.6.6 6.6 1 11 .3 4.4.8 9.8 1 12 .2 2.2.7 7.1 1 11 .6 7.8 1.3 15.7 2 22.5.2 2.5.7 7.9 1 12 .4 4.1.8 8.8 1 10.5.2 1.6.5 5.1.6 7.7.2 4 .6 4.8 2.1 4.8 1.7 0 1.9-.6 1.4-4.8-.8-7.3-1.5-14-2.1-22.2-.3-4.1-.8-9.5-1-12-.3-2.5-.7-7.7-1-11.5-.3-3.9-.8-8.6-1-10.5-.2-1.9-.7-7.3-1-12-.3-4.7-.8-10.2-1.1-12.3-.5-3.5-.3-3.7 2.3-3.8 1.5-.1 3.7-.3 4.8-.4 1.1-.1 6.1-.5 11-.9 5-.4 10.6-.9 12.5-1.1 1.9-.2 7.1-.7 11.5-1 4.4-.3 9.4-.8 11-1 2.7-.4 10.6-1.1 23-2 2.2-.2 6.7-.6 10-.9 3.3-.3 9.4-.8 13.5-1.1 4.1-.3 8.9-.8 10.5-1 1.7-.2 6.5-.7 10.8-1l7.7-.7.1 2.8c0 1.6.2 4.5.4 6.4.1 1.9.6 7.3 1 12 .3 4.7.8 9.8 1 11.5.2 1.6.6 6.8 1 11.5.3 4.7.8 10.3 1 12.5.5 4.1 1 9.5 2 22.5.8 9.2 1 10.1 2.9 9.4 1-.4 1.4-1.6 1.1-3.7-.2-1.8-.7-6.6-1-10.7-.3-4.1-.8-9.5-1-12-.8-8.2-1.5-15.4-2-22-.3-3.6-.7-8.5-1-11-.2-2.5-.7-7.9-1-12-.7-8.7-.9-11.1-3-33.7-.8-8.6-1.3-14.5-2-23.3-.7-10.2-1.5-18.8-2-23-.3-1.9-.7-6.7-1-10.5-1.2-16.8-2.2-21.4-4-18.5z"/></svg>